<svg xmlns="http://www.w3.org/2000/svg" data-name="Layer 1" viewBox="0 0 100 125" x="0px" y="0px"><defs><style>.cls-1{fill-rule:evenodd;}</style></defs><title>a</title><path class="cls-1" d="M9.849,29.917V76.77a40.977,40.977,0,0,1,7.407-2.224,50.831,50.831,0,0,1,10.129-1,49.547,49.547,0,0,1,12.832,1.636,35.079,35.079,0,0,1,8.7,3.567V32.1a31.528,31.528,0,0,0-9.26-4.029,47.411,47.411,0,0,0-12.275-1.56,48.675,48.675,0,0,0-9.7.949,38.033,38.033,0,0,0-7.838,2.459Zm4.922,30.512a1.077,1.077,0,0,1-.574-2.076,46.284,46.284,0,0,1,6.41-1.3,52.147,52.147,0,0,1,6.778-.441,51.426,51.426,0,0,1,8.727.734,42.617,42.617,0,0,1,7.968,2.154,1.079,1.079,0,1,1-.768,2.016,40.474,40.474,0,0,0-7.563-2.044,49.293,49.293,0,0,0-8.364-.7,50.091,50.091,0,0,0-6.5.415,44.28,44.28,0,0,0-6.114,1.237Zm0,8.067A1.077,1.077,0,1,1,14.2,66.42a46.284,46.284,0,0,1,6.41-1.3,52.147,52.147,0,0,1,6.778-.441,51.426,51.426,0,0,1,8.727.734,42.617,42.617,0,0,1,7.968,2.154,1.079,1.079,0,1,1-.768,2.016,40.474,40.474,0,0,0-7.563-2.044,49.293,49.293,0,0,0-8.364-.7,50.091,50.091,0,0,0-6.5.415A44.28,44.28,0,0,0,14.771,68.5ZM56.688,53.454a1.079,1.079,0,0,1-.768-2.016,42.6,42.6,0,0,1,7.968-2.154,51.426,51.426,0,0,1,8.727-.734,52.174,52.174,0,0,1,6.779.441,46.3,46.3,0,0,1,6.409,1.3,1.077,1.077,0,0,1-.574,2.076,44.133,44.133,0,0,0-6.114-1.237,50.091,50.091,0,0,0-6.5-.415,49.293,49.293,0,0,0-8.364.7,40.474,40.474,0,0,0-7.563,2.044Zm0,8.067a1.079,1.079,0,0,1-.768-2.016,42.617,42.617,0,0,1,7.968-2.154,51.426,51.426,0,0,1,8.727-.734,52.174,52.174,0,0,1,6.779.441,46.3,46.3,0,0,1,6.409,1.3,1.077,1.077,0,0,1-.574,2.076,44.133,44.133,0,0,0-6.114-1.237,50.091,50.091,0,0,0-6.5-.415,49.293,49.293,0,0,0-8.364.7,40.474,40.474,0,0,0-7.563,2.044Zm0,8.067a1.079,1.079,0,1,1-.768-2.016,42.617,42.617,0,0,1,7.968-2.154,51.426,51.426,0,0,1,8.727-.734,52.147,52.147,0,0,1,6.778.441,46.284,46.284,0,0,1,6.41,1.3,1.077,1.077,0,1,1-.574,2.076,44.28,44.28,0,0,0-6.114-1.237,50.091,50.091,0,0,0-6.5-.415,49.293,49.293,0,0,0-8.364.7,40.474,40.474,0,0,0-7.563,2.044Zm-49-35.738V78.424a1.08,1.08,0,0,0,1.606.943,37.491,37.491,0,0,1,8.392-2.712,48.675,48.675,0,0,1,9.7-.949,47.368,47.368,0,0,1,12.275,1.56,31,31,0,0,1,9.668,4.308,1.078,1.078,0,0,0,1.344,0,30.992,30.992,0,0,1,9.668-4.308,47.368,47.368,0,0,1,12.275-1.56,48.675,48.675,0,0,1,9.7.949,37.491,37.491,0,0,1,8.392,2.712,1.08,1.08,0,0,0,1.606-.943V33.85q.514.184,1.028.385.853.334,1.659.694V83.242a45.541,45.541,0,0,0-8.43-2.551,56.687,56.687,0,0,0-11.294-1.115A55.262,55.262,0,0,0,60.966,81.4,37.609,37.609,0,0,0,50,86.171,37.609,37.609,0,0,0,39.034,81.4a55.262,55.262,0,0,0-14.308-1.824,56.687,56.687,0,0,0-11.294,1.115A45.541,45.541,0,0,0,5,83.242V34.929q.8-.36,1.659-.694.515-.2,1.028-.385Zm18.77-.293a7.443,7.443,0,0,1,2.631.894,7.443,7.443,0,0,1,2.631-.894,7.4,7.4,0,0,1,8,9.775c-.925,2.639-5.085,5.464-8.095,7.509-.7.474-1.329.9-1.88,1.307a1.078,1.078,0,0,1-1.292.014c-.555-.409-1.192-.842-1.9-1.321-3.01-2.045-7.17-4.87-8.095-7.509a7.4,7.4,0,0,1,8-9.775ZM28.452,36.6a1.079,1.079,0,0,0,1.258.012,5.243,5.243,0,0,1,7.977,6.016c-.691,1.97-4.507,4.562-7.268,6.438-.483.328-.937.636-1.329.909-.392-.273-.846-.581-1.329-.909-2.761-1.876-6.577-4.468-7.268-6.438A5.242,5.242,0,0,1,28.452,36.6Zm40.122,2.947-.027,2.246a.877.877,0,0,1,0,.089l-.03,2.495,4.19-2.405-4.132-2.425ZM66.5,37.329a1.076,1.076,0,0,1,.1-.209l1.371-2.335a46.821,46.821,0,0,0-4.955.719,39.566,39.566,0,0,0-6.327,1.816A1.079,1.079,0,0,1,55.92,35.3,41.766,41.766,0,0,1,62.593,33.4a49.642,49.642,0,0,1,6.706-.873l3.529-6.013h-.213a47.411,47.411,0,0,0-12.275,1.56A31.528,31.528,0,0,0,51.08,32.1V78.749a35.079,35.079,0,0,1,8.7-3.567,49.547,49.547,0,0,1,12.832-1.636,50.831,50.831,0,0,1,10.129,1,40.977,40.977,0,0,1,7.407,2.224V29.917q-1.326-.59-2.8-1.1-1.449-.5-3-.894l-3.062,5.216q.771.132,1.525.287,1.545.318,2.992.722a1.077,1.077,0,0,1-.574,2.076q-1.389-.389-2.848-.689-1.107-.227-2.264-.405l-3.241,5.522q1.963.159,3.845.46a45.721,45.721,0,0,1,5.082,1.1,1.077,1.077,0,0,1-.574,2.076,43.25,43.25,0,0,0-4.846-1.053c-1.531-.243-3.12-.417-4.755-.513a1.094,1.094,0,0,1-.241.187l-7.433,4.267,0,0a1.076,1.076,0,0,1-1.61-.946l.039-3.21c-1.547.2-3.049.461-4.494.792a38.784,38.784,0,0,0-5.2,1.571,1.079,1.079,0,0,1-.768-2.016,40.96,40.96,0,0,1,5.486-1.656,47.857,47.857,0,0,1,5-.863l.038-3.172a1.044,1.044,0,0,1,.036-.282l0-.009,0-.014.005-.015,0-.008.007-.021v0ZM81.63,19.911l-1.81-1.062-4.184,7.126c-.013.026-.028.051-.043.075l-4.7,8.013a1.028,1.028,0,0,1-.053.091l-1.843,3.139,1.81,1.062L81.63,19.911ZM85.3,22.063,83.485,21,72.659,39.444l1.809,1.063L78.6,33.464c.016-.03.034-.059.052-.088l4.2-7.163a1.187,1.187,0,0,1,.081-.138L85.3,22.063Zm-4.386-5.07L82.5,14.278a.923.923,0,0,1,1.252-.325l3.9,2.288a.922.922,0,0,1,.326,1.252l-1.594,2.714L83.647,18.6h0Z"/><text x="0" y="115" fill="#000000" font-size="5px" font-weight="bold" font-family="'Helvetica Neue', Helvetica, Arial-Unicode, Arial, Sans-serif">Created by Good Wife</text><text x="0" y="120" fill="#000000" font-size="5px" font-weight="bold" font-family="'Helvetica Neue', Helvetica, Arial-Unicode, Arial, Sans-serif">from the Noun Project</text></svg>